<?xml version="1.0"?>
<!-- Generated by SVGo (float) -->
<svg width="792.00" height="612.00"
     xmlns="http://www.w3.org/2000/svg"
     xmlns:xlink="http://www.w3.org/1999/xlink">
<a xlink:href="middle-00001.svg" xlink:title="Link to slide 001">
<rect x="0.00" y="306.00" width="792.00" height="306.00" style="fill:rgb(138,158,174);fill-opacity:0.70" />
<rect x="0.00" y="0.00" width="792.00" height="306.00" style="fill:rgb(163,199,244);fill-opacity:1.00" />
<line x1="590.04" y1="278.46" x2="597.17" y2="274.79" style="stroke-width:0.24px;stroke:rgb(127,127,127);stroke-opacity:1.00" />
<line x1="592.42" y1="300.49" x2="597.17" y2="272.95" style="stroke-width:0.95px;stroke:rgb(127,127,127);stroke-opacity:1.00" />
<line x1="609.05" y1="300.49" x2="618.55" y2="265.61" style="stroke-width:0.95px;stroke:rgb(127,127,127);stroke-opacity:1.00" />
<line x1="554.40" y1="294.98" x2="573.41" y2="301.41" style="stroke-width:0.95px;stroke:black;stroke-opacity:1.00" />
<polygon points="571.03,300.49 575.78,306.00 630.43,306.00 635.18,300.49" style="fill:black;fill-opacity:1.00" />
<polygon points="559.15,296.82 575.78,294.98 585.29,287.64 590.04,278.46" style="fill:rgb(255,255,255);fill-opacity:1.00" />
<polygon points="571.03,296.82 590.04,296.82 592.42,280.30" style="fill:rgb(255,255,255);fill-opacity:1.00" />
<polygon points="592.42,300.49 609.05,298.66 609.05,276.62 597.17,282.13" style="fill:rgb(255,255,255);fill-opacity:1.00" />
<polygon points="609.05,300.49 635.18,296.82 628.06,272.95 613.80,280.30" style="fill:rgb(255,255,255);fill-opacity:1.00" />
<polygon points="575.78,306.00 792.00,306.00 792.00,336.60" style="fill:#660000;fill-opacity:0.50" />
</a>
</svg>
